<?xml version="1.0" standalone="no"?><!DOCTYPE svg PUBLIC "-//W3C//DTD SVG 1.1//EN" "http://www.w3.org/Graphics/SVG/1.1/DTD/svg11.dtd"><svg t="1594610929757" class="icon" viewBox="0 0 1024 1024" version="1.1" xmlns="http://www.w3.org/2000/svg" p-id="1155" width="32" height="32" data-spm-anchor-id="a313x.7781069.0.i4" xmlns:xlink="http://www.w3.org/1999/xlink"><defs><style type="text/css"></style></defs><path d="M846.1527 65.0588H176.502784c-61.5537 0-111.6088 50.0552-111.6088 111.6088v669.6499200000001c0 61.5537 50.0552 111.6088 111.6088 111.6088h669.6499200000001c61.5281 0 111.6088-50.0552 111.6088-111.6088V176.66764799999999C957.7615 115.114 907.6808 65.0588 846.1527 65.0588zM901.9576 846.3176c0 30.763-25.0409 55.8049-55.8049 55.8049H176.502784c-30.7907 0-55.8049-25.0419-55.8049-55.8049V176.66764799999999c0-30.763 25.0143-55.8049 55.8049-55.8049h669.6499200000001c30.764 0 55.8049 25.0419 55.8049 55.8049V846.3175679999999zM762.4479 232.4726H622.93504c-15.4214 0-27.9009 12.4795-27.9009 27.902s12.4805 27.903 27.9009 27.903h72.154112L575.3078 408.0589c-10.9005 10.8995-10.9005 28.5563 0 39.4557 5.4487 5.4487 12.588 8.1736 19.7274 8.1736s14.2766-2.7249 19.7284-8.1736l119.7824-119.7834v72.15308800000001c0 15.4225 12.4805 27.902 27.903 27.902 15.3948 0 27.902-12.4795 27.902-27.902V260.37350399999997C790.3498 244.951 777.8427 232.4726 762.4479 232.4726zM327.5663 288.2765h72.15308800000001c15.3948 0 27.902-12.4805 27.902-27.903s-12.5071-27.902-27.902-27.902H260.20864c-15.4225 0-27.902 12.4795-27.902 27.902v139.51078400000003c0 15.4225 12.4795 27.902 27.902 27.902 15.3958 0 27.903-12.4795 27.903-27.902v-72.15308800000001l119.7824 119.7834c5.4497 5.4487 12.588 8.1736 19.7284 8.1736s14.2776-2.7249 19.7284-8.1736c10.8984-10.8995 10.8984-28.5563 0-39.4557L327.5663 288.2765zM407.894 575.4726 288.1116 695.254v-72.152064c0-15.4235-12.5071-27.903-27.903-27.903-15.4225 0-27.902 12.4805-27.902 27.903v139.50976c0 15.4225 12.4795 27.902 27.902 27.902h139.51078400000003c15.3948 0 27.902-12.4805 27.902-27.902 0-15.4235-12.5071-27.903-27.902-27.903h-72.15308800000001l119.7834-119.7824c10.8984-10.9005 10.8984-28.5563 0-39.4547C436.4503 564.5722 418.7935 564.5722 407.894 575.4726zM762.4479 595.199c-15.4235 0-27.903 12.4805-27.903 27.903v72.152064L614.7625 575.4726c-10.9005-10.9005-28.5573-10.9005-39.4547 0-10.9005 10.8995-10.9005 28.5553 0 39.4547l119.7824 119.7824h-72.154112c-15.4214 0-27.9009 12.4805-27.9009 27.903 0 15.4225 12.4805 27.902 27.9009 27.902h139.511808c15.3948 0 27.902-12.4805 27.902-27.902v-139.50976C790.3498 607.6795 777.8427 595.199 762.4479 595.199z" p-id="1156" fill="#1296db"></path></svg>