<?xml version="1.0" standalone="no"?><!DOCTYPE svg PUBLIC "-//W3C//DTD SVG 1.1//EN" "http://www.w3.org/Graphics/SVG/1.1/DTD/svg11.dtd"><svg t="1593756416815" class="icon" viewBox="0 0 1024 1024" version="1.1" xmlns="http://www.w3.org/2000/svg" p-id="3111" width="16" height="16" xmlns:xlink="http://www.w3.org/1999/xlink"><defs><style type="text/css"></style></defs><path d="M606.9 926.6l-410.3-0.1c-72.8 0-132-62.8-132-139.9v-52.8c0-65.5 23.9-127.4 67.3-174.3 44-47.5 102.5-73.7 164.7-73.7h45.1c11.7 0 23 4.9 30.9 13.5l73.2 79.2 73.7-79.3c7.9-8.5 19.2-13.4 30.8-13.4h44.9c6.4 0 12.9 0.3 19.2 0.8 5.6 0.5 11.2 1.2 16.7 2.1 9 1.5 17.9 3.6 26.6 6.2 10.5 3.2 20.9 7.2 30.9 11.9 1.2 0.6 2.3 1.1 3.5 1.7 15.8 7.8 22.3 27 14.5 42.9-7.8 15.8-27 22.3-42.9 14.5-0.8-0.4-1.7-0.8-2.5-1.2-7.1-3.4-14.5-6.2-22-8.5-6.2-1.8-12.5-3.3-18.8-4.4-3.9-0.6-7.8-1.2-11.7-1.5-4.5-0.4-9-0.6-13.6-0.6H560l-83.3 89.6c-7.9 8.5-19.2 13.4-30.8 13.4h-0.1c-11.7 0-22.9-4.9-30.9-13.5l-82.8-89.5h-35.6c-92.7 0-168 82.5-168 184v52.8c0 41.9 30.5 75.9 68 75.9l410.3 0.1c17.7 0 32 14.3 32 32 0.1 17.8-14.3 32.1-31.9 32.1zM447.7 128.7c36.1 0 70 14 95.5 39.5s39.5 59.4 39.5 95.5-14 70-39.5 95.5-59.4 39.5-95.5 39.5-70-14-95.5-39.5-39.5-59.4-39.5-95.5 14-70 39.5-95.5c25.5-25.4 59.4-39.5 95.5-39.5m0-64c-109.9 0-199 89.1-199 199s89.1 199 199 199 199-89.1 199-199-89.1-199-199-199z" p-id="3112" fill="#2c2c2c"></path><path d="M736.3 560.3c46.5 0 90.2 18.1 123.1 51 32.9 32.9 51 76.6 51 123.1s-18.1 90.2-51 123.1c-32.9 32.9-76.6 51-123.1 51s-90.2-18.1-123.1-51c-32.9-32.9-51-76.6-51-123.1s18.1-90.2 51-123.1c32.9-32.9 76.6-51 123.1-51m0-50c-123.8 0-224.1 100.3-224.1 224.1s100.3 224.1 224.1 224.1 224.1-100.3 224.1-224.1S860 510.3 736.3 510.3z" p-id="3113" fill="#2c2c2c"></path><path d="M703.3 625.8c-6.5 17.4-14.8 35.4-23.9 52.8v182.5h-37.2V735.8c-3.6 4.7-7.5 9.1-11.2 13-3.4-9.4-13.5-30.4-19.8-39.8 22.4-22.6 43.9-58.5 56.4-94.4l35.7 11.2z m63.7 174c-13.3 22.9-34.8 46-53.6 60.3-6.8-6.8-21.1-18.5-29.4-23.7 18.7-11.4 37.2-29.9 47.6-47.8l35.4 11.2z m94.4-56.2v36.9H691.6v-36.9h32.2v-45h-26v-36.1h26V616h36.9v46.5h30.2v-47.1h36.9v47.1h31.7v36.1h-31.7v45h33.6z m-100.6 0H791v-45h-30.2v45z m56.9 44.5c16.4 16.1 33.8 37.7 42.9 52.5l-31.7 20c-7.8-15.3-25.7-39-41.3-55.9l30.1-16.6z" p-id="3114" fill="#2c2c2c"></path></svg>