<?xml version="1.0" standalone="no"?><!DOCTYPE svg PUBLIC "-//W3C//DTD SVG 1.1//EN" "http://www.w3.org/Graphics/SVG/1.1/DTD/svg11.dtd"><svg t="1594788666539" class="icon" viewBox="0 0 1024 1024" version="1.1" xmlns="http://www.w3.org/2000/svg" p-id="13713" xmlns:xlink="http://www.w3.org/1999/xlink" width="64" height="64"><defs><style type="text/css"></style></defs><path d="M136.5 889.3c0 28.6 18.3 51.7 40.9 51.7H857c22.6 0 40.9-23.1 40.9-51.7H136.5z" fill="#AAD264" p-id="13714"></path><path d="M924.9 906.9H109.5c-15.2 0-27-15.4-27-34.1L96 855.7h842.8l13.5 17.1c0 18.7-12.2 34.1-27.4 34.1z" fill="#6EA573" p-id="13715"></path><path d="M908.1 707.9h-29.2v-58.4H835V475.2h90.4c8.2 0 14.6-6.4 14.6-14.6s-6.4-14.6-14.6-14.6h-2.7c-56.6 0-83.1-90.4-86.7-103.1v-42h86.7c8.2 0 14.6-6.4 14.6-14.6s-6.4-14.6-14.6-14.6c-88.5 0-167.9-98.6-176.2-109.5l-28.3-56.6c-4.6-7.3-13.7-9.1-21-5.5-1.8 0.9-3.7 2.7-5.5 5.5l-24.6 50.2H337.6L313 105.5c-4.6-7.3-13.7-9.1-21-5.5-1.8 0.9-3.7 2.7-5.5 5.5l-28.3 56.6c-9.1 11-89.4 109.5-176.2 109.5-8.2 0-14.6 6.4-14.6 14.6s6.4 14.6 14.6 14.6h86.7v42c-3.7 12.8-31 103.1-88.5 103.1-8.2 0-14.6 6.4-14.6 14.6s6.4 14.6 14.6 14.6h88.5v174.3H125v58.4H95.7v58.4H66.5V853h869.8v-86.7H908v-58.4z m-57.5-29.2v29.2h-189v-29.2h189zM720 649.5v-72.1c0-23.7 19.2-43.8 43.8-43.8 23.7 0 43.8 19.2 43.8 43.8v72.1H720z m138.8-202.6h-82.1l-11-86.7h44.7c10 31.9 26.5 62 48.4 86.7zM748.3 331v-29.2h58.4V331h-58.4z m-72.1-145.2c5.5 0 11-2.7 12.8-8.2l15.5-31.9 15.5 31.9c0 0.9 0.9 1.8 1.8 1.8 29.2 36.5 63.9 68.5 104 93.1H771l-39.2-52-22.8 17.3 26.5 34.7h-48.4l-32.9-86.7h22z m59.4 173.5l11 86.7H689l-11-86.7h57.6zM690.8 331v-29.2H720V331h-29.2z m-87.6 0v-29.2h58.4V331h-58.4z m56.6 115h-57.5l-11-86.7h57.5l11 86.7z m-36.5-260.2l32.9 86.7h-54.8l-21.9-86.7h43.8zM545.7 331v-29.2h29.2V331h-29.2z m27.4 115h-55.7v-86.7h44.7l11 86.7z m-55.7-260.2h31.9l21.9 86.7h-53.8v-86.7z m0 145.2h-29.2v-29.2h29.2V331z m-61.1-145.2h31.9v86.7h-53.8l21.9-86.7z m-26.5 116H459V331h-29.2v-29.2z m57.5 57.5V446h-55.7l11-86.7h44.7z m-61.2-173.5l-21.9 86.7h-54.8l32.9-86.7h43.8z m-70.2 173.5h57.5l-11 86.7h-57.5l11-86.7zM343.1 331v-29.2h58.4V331h-58.4z m-61.2-150.6c0.9-0.9 0.9-1.8 1.8-2.7l15.5-31.9 16.4 31.9c2.7 4.6 7.3 8.2 12.8 8.2h22.8l-32.9 86.7h-48.4l26.5-34.7-22.8-17.3-39.2 52h-56.6c40.2-24.7 74.9-55.7 104.1-92.2z m44.8 178.9l-11 86.7h-57.5l11-86.7h57.5z m-42-28.3v-29.2h29.2V331h-29.2z m-28.3-29.2V331H198v-29.2h58.4zM145.9 446.9c22.8-24.6 39.2-54.8 48.4-86.7H239l-11 86.7h-82.1zM198 577.4c0-23.7 19.2-43.8 43.8-43.8 23.7 0 43.8 19.2 43.8 43.8v72.1h-86.7v-72.1h-0.9z m-42.9 101.3h188v29.2h-188v-29.2z m-29.2 57.5h188v29.2h-188v-29.2z m158.8 87.6h-188v-29.2h188v29.2z m174.3 0H313.9v-29.2H459v29.2z m0-58.4H343.1v-29.2H459v29.2z m0-57.5h-86.7v-29.2H459v29.2z m0.9-58.4h-87.6v-72.1c0-23.7 19.2-43.8 43.8-43.8 24.6 0 43.8 19.2 43.8 43.8v72.1z m57.5 174.3h-29.2v-29.2h29.2v29.2z m0-58.4h-29.2v-29.2h29.2v29.2z m0-57.5h-29.2v-29.2h29.2v29.2z m0-131.4v72.1h-29.2v-72.1c0-40.2-32.9-72.1-72.1-72.1-40.2 0-72.1 32.9-72.1 72.1v72.1h-29.2v-72.1c0-40.2-32.9-72.1-72.1-72.1-15.5 0-31 5.5-43.8 14.6v-43.8h607.9V519c-12.8-10-27.4-14.6-43.8-14.6-40.2 0-72.1 32.9-72.1 72.1v72.1h-29.2v-72.1c0-40.2-32.9-72.1-72.1-72.1-40.2 0-72.2 32.8-72.2 72.1z m28.3 73v-72.1c0-23.7 19.2-43.8 43.8-43.8 23.7 0 43.8 19.2 43.8 43.8v72.1h-87.6z m87.6 29.2v29.2h-86.7v-29.2h86.7z m28.3 57.5v29.2H545.7v-29.2h115.9z m29.2 87.6H545.7v-29.2h145.1v29.2z m0.9-87.6h188v29.2h-188v-29.2z m216.4 87.6H720v-29.2h188v29.2z" fill="#1E1B1E" p-id="13716"></path><path d="M748.3 301.8h58.4V331h-58.4zM690.8 301.8H720V331h-29.2zM603.2 301.8h58.4V331h-58.4zM545.7 301.8h29.2V331h-29.2zM488.2 301.8h29.2V331h-29.2zM429.8 301.8H459V331h-29.2zM343.1 301.8h58.4V331h-58.4zM284.7 301.8h29.2V331h-29.2zM198 301.8h58.4V331H198zM125.9 736.2h188v29.2h-188zM96.7 794.6h188v29.2h-188zM313.9 794.6H459v29.2H313.9zM720 794.6h188v29.2H720zM545.7 794.6h145.1v29.2H545.7zM545.7 736.2h115.9v29.2H545.7zM343.1 736.2H459v29.2H343.1zM372.3 678.7H459v29.2h-86.7zM546.6 678.7h86.7v29.2h-86.7zM155.1 678.7h188v29.2h-188zM661.6 678.7h188.9v29.2H661.6zM691.7 736.2h188v29.2h-188z" fill="#FFB895" p-id="13717"></path><path d="M746.5 446H689l-10.9-86.7h57.5zM858.8 446.9h-82.1l-11-86.7h44.7c10 31.9 26.5 62 48.4 86.7zM659.8 446h-57.5l-11-86.7h57.5zM573.1 446h-55.7v-86.7h44.7zM487.3 359.3V446h-55.7l11-86.7zM413.4 359.3l-11 86.7h-57.5l11-86.7zM326.7 359.3l-11 86.7h-57.5l11-86.7zM239 360.2l-11 86.7h-82.1c22.8-24.6 39.2-54.8 48.4-86.7H239z" fill="#FFD3AE" p-id="13718"></path><path d="M806.7 475.2V519c-12.8-10-27.4-14.6-43.8-14.6-40.2 0-72.1 32.9-72.1 72.1v72.1h-29.2v-72.1c0-40.2-32.9-72.1-72.1-72.1-40.2 0-72.1 32.9-72.1 72.1v72.1h-29.2v-72.1c0-40.2-32.9-72.1-72.1-72.1-40.2 0-72.1 32.9-72.1 72.1v72.1h-29.2v-72.1c0-40.2-32.9-72.1-72.1-72.1-15.5 0-31 5.5-43.8 14.6v-43.8h607.8z" fill="#FFB895" p-id="13719"></path><path d="M731.9 220.5l-22.8 17.3 26.5 34.7h-48.4l-32.9-86.7h21.9c5.5 0 11-2.7 12.8-8.2l15.5-31.9 15.5 31.9c0 0.9 0.9 1.8 1.8 1.8 29.2 36.5 63.9 68.5 104 93.1H771l-39.1-52zM656.1 272.6h-54.7l-21.9-86.8h43.8zM571.3 272.6h-53.9v-86.8h32zM488.2 185.8v86.8h-53.8l21.9-86.8zM426.1 185.8l-21.9 86.8h-54.7l32.8-86.8zM351.3 185.8l-32.9 86.7H270l26.5-34.7-22.8-17.3-39.2 52h-56.6c40.2-24.6 74.8-55.7 104-92.2 0.9-0.9 0.9-1.8 1.8-2.7l15.5-31.9 16.4 31.9c2.7 4.6 7.3 8.2 12.8 8.2h22.9z" fill="#FFD3AE" p-id="13720"></path></svg>